<svg xmlns="http://www.w3.org/2000/svg" viewBox="0 0 480 360" role="img" aria-labelledby="title desc">
  <title id="title">Wardley gameplay image placeholder</title>
  <desc id="desc">Placeholder for a generated image showing strategic gameplay callouts on a map.</desc>
  <rect width="480" height="360" fill="#f8fafc"/>
  <rect x="32" y="32" width="416" height="296" rx="18" fill="#ffffff" stroke="#cbd5e1" stroke-width="2"/>
  <g stroke="#cbd5e1" stroke-width="2">
    <line x1="92" y1="72" x2="92" y2="260"/>
    <line x1="92" y1="260" x2="400" y2="260"/>
  </g>
  <g stroke="#64748b" stroke-width="3" stroke-linecap="round">
    <path d="M152 126l76 46 82-58"/>
    <path d="M228 172l42 62"/>
  </g>
  <g font-family="Arial, sans-serif">
    <circle cx="152" cy="126" r="20" fill="#dbeafe" stroke="#3b82f6" stroke-width="3"/>
    <circle cx="228" cy="172" r="20" fill="#dcfce7" stroke="#22c55e" stroke-width="3"/>
    <circle cx="310" cy="114" r="20" fill="#fef3c7" stroke="#f59e0b" stroke-width="3"/>
    <circle cx="270" cy="234" r="20" fill="#ede9fe" stroke="#8b5cf6" stroke-width="3"/>
    <g font-size="12" font-weight="700" fill="#0f172a">
      <rect x="58" y="86" width="108" height="28" rx="8" fill="#e0f2fe" stroke="#38bdf8"/>
      <text x="112" y="105" text-anchor="middle">defend UX</text>
      <rect x="292" y="74" width="118" height="28" rx="8" fill="#fef3c7" stroke="#f59e0b"/>
      <text x="351" y="93" text-anchor="middle">differentiate</text>
      <rect x="282" y="222" width="118" height="28" rx="8" fill="#e2e8f0" stroke="#64748b"/>
      <text x="341" y="241" text-anchor="middle">outsource</text>
      <rect x="122" y="208" width="118" height="28" rx="8" fill="#dcfce7" stroke="#22c55e"/>
      <text x="181" y="227" text-anchor="middle">remove constraint</text>
    </g>
  </g>
  <text x="240" y="324" text-anchor="middle" font-family="Arial, sans-serif" font-size="12" fill="#64748b">placeholder image</text>
</svg>
