<svg xmlns="http://www.w3.org/2000/svg" viewBox="0 0 480 360" role="img" aria-labelledby="title desc">
  <title id="title">Wardley value stream connections image placeholder</title>
  <desc id="desc">Placeholder for a generated image showing a user need connected to activities and systems.</desc>
  <rect width="480" height="360" fill="#f8fafc"/>
  <rect x="32" y="32" width="416" height="296" rx="18" fill="#ffffff" stroke="#cbd5e1" stroke-width="2"/>
  <circle cx="240" cy="78" r="28" fill="#0f172a"/>
  <text x="240" y="84" text-anchor="middle" font-family="Arial, sans-serif" font-size="14" font-weight="700" fill="#ffffff">USER</text>
  <g stroke="#64748b" stroke-width="3" stroke-linecap="round">
    <path d="M240 106v44"/>
    <path d="M240 150H132"/>
    <path d="M240 150h108"/>
    <path d="M132 198v38"/>
    <path d="M348 198v38"/>
    <path d="M240 178v88"/>
  </g>
  <g font-family="Arial, sans-serif" font-size="15" font-weight="700" fill="#334155">
    <rect x="168" y="142" width="144" height="48" rx="10" fill="#e0f2fe" stroke="#38bdf8"/>
    <text x="240" y="171" text-anchor="middle">Digital Service</text>
    <rect x="70" y="236" width="124" height="42" rx="10" fill="#fef3c7" stroke="#f59e0b"/>
    <text x="132" y="262" text-anchor="middle">Operations</text>
    <rect x="286" y="236" width="124" height="42" rx="10" fill="#dcfce7" stroke="#22c55e"/>
    <text x="348" y="262" text-anchor="middle">Data</text>
    <rect x="178" y="270" width="124" height="42" rx="10" fill="#ede9fe" stroke="#8b5cf6"/>
    <text x="240" y="296" text-anchor="middle">Platform</text>
  </g>
  <text x="240" y="324" text-anchor="middle" font-family="Arial, sans-serif" font-size="12" fill="#64748b">placeholder image</text>
</svg>
